<?xml version="1.0" encoding="UTF-8"?>
<!DOCTYPE svg PUBLIC "-//W3C//DTD SVG 1.1//EN" "http://www.w3.org/Graphics/SVG/1.1/DTD/svg11.dtd">
<svg xmlns="http://www.w3.org/2000/svg" version="1.1" width="650px" height="160px" style="shape-rendering:geometricPrecision; text-rendering:geometricPrecision; image-rendering:optimizeQuality; fill-rule:evenodd; clip-rule:evenodd" xmlns:xlink="http://www.w3.org/1999/xlink">
<g><path style="opacity:0.965" fill="#5c5cff" d="M 70.5,16.5 C 101.515,14.7472 123.682,27.7472 137,55.5C 147.07,86.9528 138.904,112.453 112.5,132C 86.7341,145.994 62.0675,144.328 38.5,127C 14.2936,102.959 10.1269,75.792 26,45.5C 36.7691,29.5586 51.6025,19.8919 70.5,16.5 Z M 78.5,40.5 C 79.7498,40.5774 80.5831,41.244 81,42.5C 83.3007,50.879 86.134,59.0457 89.5,67C 98.8511,67.1679 108.184,67.6679 117.5,68.5C 109.876,74.1218 102.543,80.1218 95.5,86.5C 97.8799,94.9261 100.547,103.259 103.5,111.5C 103.167,111.833 102.833,112.167 102.5,112.5C 94.7252,107.866 87.2252,102.866 80,97.5C 72.3744,102.289 64.8744,107.289 57.5,112.5C 57.1667,112 56.8333,111.5 56.5,111C 59.0522,103.96 61.2189,96.7931 63,89.5C 63.6667,87.8333 63.6667,86.1667 63,84.5C 55.6923,79.3593 48.5256,74.026 41.5,68.5C 51.1437,67.5016 60.8104,67.1682 70.5,67.5C 73.5675,58.6298 76.2341,49.6298 78.5,40.5 Z"/></g>
<g><path style="opacity:0.854" fill="#000000" d="M 350.5,45.5 C 353.448,45.2229 356.281,45.5562 359,46.5C 362.05,52.3429 360.383,55.6762 354,56.5C 351.966,56.6464 350.299,55.9797 349,54.5C 348.068,51.1769 348.568,48.1769 350.5,45.5 Z"/></g>
<g><path style="opacity:0.918" fill="#000000" d="M 380.5,45.5 C 384.514,45.3345 388.514,45.5012 392.5,46C 393.291,48.7499 393.291,51.5832 392.5,54.5C 385.481,52.8259 382.481,55.4926 383.5,62.5C 386.5,62.5 389.5,62.5 392.5,62.5C 392.5,65.1667 392.5,67.8333 392.5,70.5C 389.5,70.5 386.5,70.5 383.5,70.5C 383.5,82.1667 383.5,93.8333 383.5,105.5C 379.833,105.5 376.167,105.5 372.5,105.5C 372.5,93.8333 372.5,82.1667 372.5,70.5C 370.167,70.5 367.833,70.5 365.5,70.5C 365.5,67.8333 365.5,65.1667 365.5,62.5C 367.833,62.5 370.167,62.5 372.5,62.5C 371.198,54.7766 373.865,49.1099 380.5,45.5 Z"/></g>
<g><path style="opacity:0.901" fill="#000000" d="M 181.5,47.5 C 196.837,47.3334 212.17,47.5001 227.5,48C 228.451,51.0567 228.784,54.2234 228.5,57.5C 222.5,57.5 216.5,57.5 210.5,57.5C 210.5,73.5 210.5,89.5 210.5,105.5C 206.833,105.5 203.167,105.5 199.5,105.5C 199.5,89.5 199.5,73.5 199.5,57.5C 193.5,57.5 187.5,57.5 181.5,57.5C 181.5,54.1667 181.5,50.8333 181.5,47.5 Z"/></g>
<g><path style="opacity:0.911" fill="#000000" d="M 444.5,47.5 C 448.437,47.2065 452.27,47.5399 456,48.5C 456.5,56.4931 456.666,64.4931 456.5,72.5C 464.833,72.5 473.167,72.5 481.5,72.5C 481.5,64.1667 481.5,55.8333 481.5,47.5C 485.167,47.5 488.833,47.5 492.5,47.5C 492.5,66.8333 492.5,86.1667 492.5,105.5C 488.833,105.5 485.167,105.5 481.5,105.5C 481.5,97.5 481.5,89.5 481.5,81.5C 473.167,81.5 464.833,81.5 456.5,81.5C 456.5,89.5 456.5,97.5 456.5,105.5C 452.5,105.5 448.5,105.5 444.5,105.5C 444.5,86.1667 444.5,66.8333 444.5,47.5 Z"/></g>
<g><path style="opacity:0.915" fill="#000000" d="M 551.5,47.5 C 555.167,47.5 558.833,47.5 562.5,47.5C 562.334,54.175 562.5,60.8417 563,67.5C 564.48,64.3374 566.98,62.504 570.5,62C 579.281,60.474 585.781,63.6407 590,71.5C 593.333,79.8333 593.333,88.1667 590,96.5C 584.08,106.251 575.914,108.751 565.5,104C 563.951,102.786 562.785,101.286 562,99.5C 561.505,101.473 561.338,103.473 561.5,105.5C 558.167,105.5 554.833,105.5 551.5,105.5C 551.5,86.1667 551.5,66.8333 551.5,47.5 Z M 569.5,70.5 C 577.637,71.3653 581.637,76.032 581.5,84.5C 581.031,88.0743 579.864,91.4076 578,94.5C 573.667,98.5 569.333,98.5 565,94.5C 559.562,84.9591 561.062,76.9591 569.5,70.5 Z"/></g>
<g><path style="opacity:0.909" fill="#000000" d="M 321.5,51.5 C 325.167,51.5 328.833,51.5 332.5,51.5C 332.5,55.1667 332.5,58.8333 332.5,62.5C 335.5,62.5 338.5,62.5 341.5,62.5C 341.5,65.1667 341.5,67.8333 341.5,70.5C 338.5,70.5 335.5,70.5 332.5,70.5C 332.334,78.5069 332.5,86.5069 333,94.5C 334.545,97.2933 336.712,97.96 339.5,96.5C 341.474,99.3374 341.807,102.337 340.5,105.5C 333.419,107.891 327.585,106.225 323,100.5C 321.605,90.5657 321.105,80.5657 321.5,70.5C 319.5,70.5 317.5,70.5 315.5,70.5C 315.5,67.8333 315.5,65.1667 315.5,62.5C 317.5,62.5 319.5,62.5 321.5,62.5C 321.5,58.8333 321.5,55.1667 321.5,51.5 Z"/></g>
<g><path style="opacity:0.887" fill="#000000" d="M 243.5,61.5 C 261.24,60.909 269.573,69.5756 268.5,87.5C 258.5,87.5 248.5,87.5 238.5,87.5C 239.978,96.2385 244.978,99.4052 253.5,97C 255.167,96 256.5,94.6667 257.5,93C 260.826,92.8281 264.159,92.9947 267.5,93.5C 266.431,100.404 262.431,104.57 255.5,106C 232.691,107.512 223.857,97.0118 229,74.5C 231.584,67.4871 236.417,63.1538 243.5,61.5 Z M 245.5,70.5 C 252.401,69.7434 256.401,72.7434 257.5,79.5C 251.167,79.5 244.833,79.5 238.5,79.5C 239.016,74.9946 241.349,71.9946 245.5,70.5 Z"/></g>
<g><path style="opacity:0.892" fill="#000000" d="M 288.5,61.5 C 295.948,60.6502 302.448,62.6502 308,67.5C 309.411,69.6504 310.245,71.9837 310.5,74.5C 307.962,74.5072 305.462,74.8405 303,75.5C 300.192,72.706 296.859,70.706 293,69.5C 286.858,70.2453 285.358,73.0786 288.5,78C 293.531,79.2064 298.531,80.5397 303.5,82C 310.157,84.6141 312.657,89.4474 311,96.5C 309.098,101.4 305.598,104.567 300.5,106C 293.615,107.098 286.949,106.431 280.5,104C 270.429,95.137 271.762,91.4703 284.5,93C 289.633,100.119 294.966,100.285 300.5,93.5C 299.687,92.1861 298.687,91.0195 297.5,90C 291.605,89.0882 285.938,87.4215 280.5,85C 275.255,80.5268 274.089,75.0268 277,68.5C 279.944,64.5875 283.778,62.2541 288.5,61.5 Z"/></g>
<g><path style="opacity:0.919" fill="#000000" d="M 348.5,62.5 C 352.167,62.5 355.833,62.5 359.5,62.5C 359.5,76.8333 359.5,91.1667 359.5,105.5C 355.833,105.5 352.167,105.5 348.5,105.5C 348.5,91.1667 348.5,76.8333 348.5,62.5 Z"/></g>
<g><path style="opacity:0.896" fill="#000000" d="M 395.5,62.5 C 399.555,62.1758 403.555,62.5091 407.5,63.5C 410.666,73.4943 413.832,83.4943 417,93.5C 420,83.5 423,73.5 426,63.5C 430.079,62.3705 434.245,62.2039 438.5,63C 432.005,80.4833 425.505,97.9833 419,115.5C 413.763,121.261 407.263,123.095 399.5,121C 399.167,120.667 398.833,120.333 398.5,120C 399.554,117.618 400.221,115.118 400.5,112.5C 406.101,113.936 409.434,111.936 410.5,106.5C 405.898,91.6945 400.898,77.0278 395.5,62.5 Z"/></g>
<g><path style="opacity:0.908" fill="#000000" d="M 502.5,62.5 C 506.167,62.5 509.833,62.5 513.5,62.5C 513.334,71.8393 513.5,81.1726 514,90.5C 516.017,95.9242 519.85,97.7575 525.5,96C 526.667,94.8333 527.833,93.6667 529,92.5C 530.395,82.5657 530.895,72.5657 530.5,62.5C 534.167,62.5 537.833,62.5 541.5,62.5C 541.5,76.8333 541.5,91.1667 541.5,105.5C 537.833,105.5 534.167,105.5 530.5,105.5C 530.66,103.801 530.494,102.134 530,100.5C 522.282,108.049 514.282,108.383 506,101.5C 504.438,99.0427 503.438,96.376 503,93.5C 502.5,83.172 502.334,72.8387 502.5,62.5 Z"/></g>
</svg>
