<?xml version="1.0" encoding="UTF-8"?>
<!DOCTYPE svg PUBLIC "-//W3C//DTD SVG 1.1//EN" "http://www.w3.org/Graphics/SVG/1.1/DTD/svg11.dtd">
<svg xmlns="http://www.w3.org/2000/svg" version="1.1" width="650px" height="160px" style="shape-rendering:geometricPrecision; text-rendering:geometricPrecision; image-rendering:optimizeQuality; fill-rule:evenodd; clip-rule:evenodd" xmlns:xlink="http://www.w3.org/1999/xlink">
<g><path style="opacity:0.965" fill="#5c5cff" d="M 70.5,16.5 C 101.515,14.7472 123.682,27.7472 137,55.5C 147.07,86.9528 138.904,112.453 112.5,132C 86.7341,145.994 62.0675,144.328 38.5,127C 14.2936,102.959 10.1269,75.792 26,45.5C 36.7691,29.5586 51.6025,19.8919 70.5,16.5 Z M 78.5,40.5 C 79.7498,40.5774 80.5831,41.244 81,42.5C 83.3007,50.879 86.134,59.0457 89.5,67C 98.8511,67.1679 108.184,67.6679 117.5,68.5C 109.876,74.1218 102.543,80.1218 95.5,86.5C 97.8799,94.9261 100.547,103.259 103.5,111.5C 103.167,111.833 102.833,112.167 102.5,112.5C 94.7252,107.866 87.2252,102.866 80,97.5C 72.3744,102.289 64.8744,107.289 57.5,112.5C 57.1667,112 56.8333,111.5 56.5,111C 59.0522,103.96 61.2189,96.7931 63,89.5C 63.6667,87.8333 63.6667,86.1667 63,84.5C 55.6923,79.3593 48.5256,74.026 41.5,68.5C 51.1437,67.5016 60.8104,67.1682 70.5,67.5C 73.5675,58.6298 76.2341,49.6298 78.5,40.5 Z"/></g>
<g><path style="opacity:0.854" fill="#fefffe" d="M 374.5,41.5 C 377.85,41.335 381.183,41.5017 384.5,42C 385.333,44.0811 385.333,46.2478 384.5,48.5C 376.167,46.8333 372.833,50.1667 374.5,58.5C 377.5,58.5 380.5,58.5 383.5,58.5C 383.5,60.5 383.5,62.5 383.5,64.5C 380.5,64.5 377.5,64.5 374.5,64.5C 374.5,76.8333 374.5,89.1667 374.5,101.5C 371.833,101.5 369.167,101.5 366.5,101.5C 366.5,89.1667 366.5,76.8333 366.5,64.5C 364.167,64.5 361.833,64.5 359.5,64.5C 359.5,62.5 359.5,60.5 359.5,58.5C 361.833,58.5 364.167,58.5 366.5,58.5C 365.198,50.7766 367.865,45.1099 374.5,41.5 Z"/></g>
<g><path style="opacity:0.809" fill="#fefffe" d="M 345.5,42.5 C 348.119,42.2317 350.619,42.565 353,43.5C 355.196,50.9639 352.529,53.2972 345,50.5C 343.089,47.7222 343.255,45.0556 345.5,42.5 Z"/></g>
<g><path style="opacity:0.869" fill="#fefffe" d="M 183.5,43.5 C 197.837,43.3334 212.171,43.5001 226.5,44C 227.423,46.0408 227.756,48.2075 227.5,50.5C 221.5,50.5 215.5,50.5 209.5,50.5C 209.5,67.5 209.5,84.5 209.5,101.5C 206.833,101.5 204.167,101.5 201.5,101.5C 201.5,84.5 201.5,67.5 201.5,50.5C 195.5,50.5 189.5,50.5 183.5,50.5C 183.5,48.1667 183.5,45.8333 183.5,43.5 Z"/></g>
<g><path style="opacity:0.865" fill="#fefffe" d="M 436.5,43.5 C 439.167,43.5 441.833,43.5 444.5,43.5C 444.5,52.1667 444.5,60.8333 444.5,69.5C 454.5,69.5 464.5,69.5 474.5,69.5C 474.5,60.8333 474.5,52.1667 474.5,43.5C 477.167,43.5 479.833,43.5 482.5,43.5C 482.5,62.8333 482.5,82.1667 482.5,101.5C 479.833,101.5 477.167,101.5 474.5,101.5C 474.5,93.1667 474.5,84.8333 474.5,76.5C 464.5,76.5 454.5,76.5 444.5,76.5C 444.5,84.8333 444.5,93.1667 444.5,101.5C 441.833,101.5 439.167,101.5 436.5,101.5C 436.5,82.1667 436.5,62.8333 436.5,43.5 Z"/></g>
<g><path style="opacity:0.843" fill="#fefffe" d="M 540.5,43.5 C 543.167,43.5 545.833,43.5 548.5,43.5C 548.334,50.175 548.5,56.8417 549,63.5C 550.836,60.8252 553.336,58.9919 556.5,58C 571.753,57.4167 579.42,64.9167 579.5,80.5C 579.268,97.2382 570.935,104.405 554.5,102C 552.391,100.859 550.558,99.3589 549,97.5C 548.51,98.7932 548.343,100.127 548.5,101.5C 545.833,101.5 543.167,101.5 540.5,101.5C 540.5,82.1667 540.5,62.8333 540.5,43.5 Z M 556.5,64.5 C 563.844,63.5833 568.677,66.5833 571,73.5C 572.061,79.7243 571.394,85.7243 569,91.5C 564.454,95.7488 559.287,96.5821 553.5,94C 551.106,92.0478 549.606,89.5478 549,86.5C 548.161,81.0788 548.494,75.7455 550,70.5C 551.494,67.6865 553.66,65.6865 556.5,64.5 Z"/></g>
<g><path style="opacity:0.895" fill="#fefffe" d="M 319.5,47.5 C 321.833,47.5 324.167,47.5 326.5,47.5C 326.5,51.1667 326.5,54.8333 326.5,58.5C 329.833,58.5 333.167,58.5 336.5,58.5C 336.5,60.5 336.5,62.5 336.5,64.5C 333.167,64.5 329.833,64.5 326.5,64.5C 326.109,74.233 326.609,83.8997 328,93.5C 330.167,95.4644 332.501,95.7978 335,94.5C 337.905,99.3286 336.738,101.995 331.5,102.5C 325.791,102.405 321.957,99.7382 320,94.5C 319.5,84.5056 319.334,74.5056 319.5,64.5C 317.167,64.5 314.833,64.5 312.5,64.5C 312.5,62.5 312.5,60.5 312.5,58.5C 314.833,58.5 317.167,58.5 319.5,58.5C 319.5,54.8333 319.5,51.1667 319.5,47.5 Z"/></g>
<g><path style="opacity:0.875" fill="#fefffe" d="M 243.5,57.5 C 259.713,57.7194 267.379,66.0527 266.5,82.5C 256.167,82.5 245.833,82.5 235.5,82.5C 235.646,90.8101 239.812,95.4768 248,96.5C 252.504,96.004 256.004,93.8373 258.5,90C 260.797,89.9822 263.131,90.1489 265.5,90.5C 264.119,96.3836 260.453,100.217 254.5,102C 237.427,104.594 228.427,97.2611 227.5,80C 227.752,68.6217 233.085,61.1217 243.5,57.5 Z M 243.5,64.5 C 252.686,63.3588 257.686,67.3588 258.5,76.5C 250.833,76.5 243.167,76.5 235.5,76.5C 236.178,71.1367 238.844,67.1367 243.5,64.5 Z"/></g>
<g><path style="opacity:0.853" fill="#fefffe" d="M 286.5,57.5 C 295.882,55.8133 302.549,59.1466 306.5,67.5C 305.098,69.1463 303.264,70.1463 301,70.5C 295.98,63.7562 289.98,62.7562 283,67.5C 282.104,70.025 282.604,72.1917 284.5,74C 289.822,75.6645 295.155,77.3312 300.5,79C 309.412,85.5074 309.746,92.5074 301.5,100C 293.031,103.733 284.864,103.233 277,98.5C 275.36,96.421 274.194,94.0876 273.5,91.5C 275.246,90.6047 277.08,89.938 279,89.5C 284.603,97.3527 291.269,98.3527 299,92.5C 299.896,89.975 299.396,87.8083 297.5,86C 292.989,84.1635 288.323,82.8302 283.5,82C 275.158,77.974 272.992,71.8073 277,63.5C 279.843,60.8373 283.009,58.8373 286.5,57.5 Z"/></g>
<g><path style="opacity:0.942" fill="#fefffe" d="M 345.5,58.5 C 347.833,58.5 350.167,58.5 352.5,58.5C 352.5,72.8333 352.5,87.1667 352.5,101.5C 350.167,101.5 347.833,101.5 345.5,101.5C 345.5,87.1667 345.5,72.8333 345.5,58.5 Z"/></g>
<g><path style="opacity:0.86" fill="#fefffe" d="M 388.5,59.5 C 391.287,58.5233 394.287,58.19 397.5,58.5C 400.593,69.3551 404.26,80.0217 408.5,90.5C 412.57,79.9571 416.236,69.2905 419.5,58.5C 422.518,58.3354 425.518,58.502 428.5,59C 422.279,74.328 416.445,89.828 411,105.5C 408.342,116.077 401.842,119.744 391.5,116.5C 392.154,114.885 392.654,113.218 393,111.5C 395.479,111.899 397.979,111.399 400.5,110C 402.097,107.473 403.43,104.806 404.5,102C 399.433,87.618 394.099,73.4513 388.5,59.5 Z"/></g>
<g><path style="opacity:0.913" fill="#fefffe" d="M 494.5,58.5 C 496.833,58.5 499.167,58.5 501.5,58.5C 501.334,68.5056 501.5,78.5056 502,88.5C 507.344,97.4866 513.344,97.82 520,89.5C 521.399,79.2317 521.899,68.8983 521.5,58.5C 523.833,58.5 526.167,58.5 528.5,58.5C 528.5,72.8333 528.5,87.1667 528.5,101.5C 526.167,101.5 523.833,101.5 521.5,101.5C 521.662,99.4727 521.495,97.4727 521,95.5C 518.274,100.282 514.107,102.616 508.5,102.5C 502.893,102.616 498.726,100.282 496,95.5C 494.561,83.2419 494.061,70.9085 494.5,58.5 Z"/></g>
</svg>
