<?xml version="1.0" encoding="UTF-8"?>
<!DOCTYPE svg PUBLIC "-//W3C//DTD SVG 1.1//EN" "http://www.w3.org/Graphics/SVG/1.1/DTD/svg11.dtd">
<svg xmlns="http://www.w3.org/2000/svg" version="1.1" width="650px" height="160px" style="shape-rendering:geometricPrecision; text-rendering:geometricPrecision; image-rendering:optimizeQuality; fill-rule:evenodd; clip-rule:evenodd" xmlns:xlink="http://www.w3.org/1999/xlink">
<g><path style="opacity:0.965" fill="#5c5cff" d="M 70.5,16.5 C 101.515,14.7472 123.682,27.7472 137,55.5C 147.07,86.9528 138.904,112.453 112.5,132C 86.7341,145.994 62.0675,144.328 38.5,127C 14.2936,102.959 10.1269,75.792 26,45.5C 36.7691,29.5586 51.6025,19.8919 70.5,16.5 Z M 78.5,40.5 C 79.7498,40.5774 80.5831,41.244 81,42.5C 83.3007,50.879 86.134,59.0457 89.5,67C 98.8511,67.1679 108.184,67.6679 117.5,68.5C 109.876,74.1218 102.543,80.1218 95.5,86.5C 97.8799,94.9261 100.547,103.259 103.5,111.5C 103.167,111.833 102.833,112.167 102.5,112.5C 94.7252,107.866 87.2252,102.866 80,97.5C 72.3744,102.289 64.8744,107.289 57.5,112.5C 57.1667,112 56.8333,111.5 56.5,111C 59.0522,103.96 61.2189,96.7931 63,89.5C 63.6667,87.8333 63.6667,86.1667 63,84.5C 55.6923,79.3593 48.5256,74.026 41.5,68.5C 51.1437,67.5016 60.8104,67.1682 70.5,67.5C 73.5675,58.6298 76.2341,49.6298 78.5,40.5 Z"/></g>
<g><path style="opacity:0.815" fill="#fefffe" d="M 354.5,44.5 C 363.523,44.0616 366.189,47.8949 362.5,56C 354.638,59.3308 350.805,56.8308 351,48.5C 352.032,46.9733 353.199,45.64 354.5,44.5 Z"/></g>
<g><path style="opacity:0.929" fill="#fefffe" d="M 384.5,45.5 C 388.902,45.2281 393.235,45.5614 397.5,46.5C 398.015,49.833 397.515,53.1663 396,56.5C 390.226,54.0274 387.726,55.694 388.5,61.5C 391.086,62.48 393.753,62.8134 396.5,62.5C 396.5,65.5 396.5,68.5 396.5,71.5C 393.833,71.5 391.167,71.5 388.5,71.5C 388.5,82.8333 388.5,94.1667 388.5,105.5C 384.167,105.5 379.833,105.5 375.5,105.5C 375.5,94.1667 375.5,82.8333 375.5,71.5C 373.5,71.5 371.5,71.5 369.5,71.5C 369.5,68.5 369.5,65.5 369.5,62.5C 371.5,62.5 373.5,62.5 375.5,62.5C 374.063,54.3688 377.063,48.7022 384.5,45.5 Z"/></g>
<g><path style="opacity:0.909" fill="#fefffe" d="M 181.5,47.5 C 197.17,47.3334 212.837,47.5001 228.5,48C 229.456,51.3936 229.789,54.8936 229.5,58.5C 223.5,58.5 217.5,58.5 211.5,58.5C 211.5,74.1667 211.5,89.8333 211.5,105.5C 207.167,105.5 202.833,105.5 198.5,105.5C 198.5,89.8333 198.5,74.1667 198.5,58.5C 192.833,58.5 187.167,58.5 181.5,58.5C 181.5,54.8333 181.5,51.1667 181.5,47.5 Z"/></g>
<g><path style="opacity:0.922" fill="#fefffe" d="M 449.5,47.5 C 453.833,47.5 458.167,47.5 462.5,47.5C 462.5,55.5 462.5,63.5 462.5,71.5C 470.167,71.5 477.833,71.5 485.5,71.5C 485.5,63.5 485.5,55.5 485.5,47.5C 489.833,47.5 494.167,47.5 498.5,47.5C 498.5,66.8333 498.5,86.1667 498.5,105.5C 494.167,105.5 489.833,105.5 485.5,105.5C 485.5,97.8333 485.5,90.1667 485.5,82.5C 477.833,82.5 470.167,82.5 462.5,82.5C 462.5,90.1667 462.5,97.8333 462.5,105.5C 458.167,105.5 453.833,105.5 449.5,105.5C 449.5,86.1667 449.5,66.8333 449.5,47.5 Z"/></g>
<g><path style="opacity:0.909" fill="#fefffe" d="M 556.5,47.5 C 560.833,47.5 565.167,47.5 569.5,47.5C 569.334,54.175 569.5,60.8417 570,67.5C 577.592,59.899 585.592,59.5657 594,66.5C 601.704,79.0613 601.204,91.228 592.5,103C 585.972,107.098 579.305,107.432 572.5,104C 571.299,103.097 570.465,101.931 570,100.5C 569.506,102.134 569.34,103.801 569.5,105.5C 565.167,105.5 560.833,105.5 556.5,105.5C 556.5,86.1667 556.5,66.8333 556.5,47.5 Z M 577.5,71.5 C 583.745,73.2551 586.745,77.4218 586.5,84C 587.01,90.8451 584.01,95.0118 577.5,96.5C 571.72,94.4606 569.053,90.294 569.5,84C 569.079,77.6399 571.746,73.4733 577.5,71.5 Z"/></g>
<g><path style="opacity:0.91" fill="#fefffe" d="M 323.5,51.5 C 327.833,51.5 332.167,51.5 336.5,51.5C 336.5,55.1667 336.5,58.8333 336.5,62.5C 339.167,62.5 341.833,62.5 344.5,62.5C 344.5,65.5 344.5,68.5 344.5,71.5C 341.833,71.5 339.167,71.5 336.5,71.5C 336.334,79.1739 336.5,86.8406 337,94.5C 337.667,95.1667 338.333,95.8333 339,96.5C 340.356,95.6198 341.856,95.2865 343.5,95.5C 343.723,98.7842 344.39,101.951 345.5,105C 338.466,107.636 331.966,106.803 326,102.5C 325.333,101.167 324.667,99.8333 324,98.5C 323.5,89.5062 323.334,80.5062 323.5,71.5C 321.5,71.5 319.5,71.5 317.5,71.5C 317.5,68.5 317.5,65.5 317.5,62.5C 319.5,62.5 321.5,62.5 323.5,62.5C 323.5,58.8333 323.5,55.1667 323.5,51.5 Z"/></g>
<g><path style="opacity:0.907" fill="#fefffe" d="M 244.5,61.5 C 262.289,60.9574 270.623,69.624 269.5,87.5C 259.833,87.5 250.167,87.5 240.5,87.5C 241.907,95.7034 246.573,98.5367 254.5,96C 255.357,95.3109 256.023,94.4776 256.5,93.5C 260.833,92.1667 265.167,92.1667 269.5,93.5C 267.629,100.204 263.296,104.37 256.5,106C 233.735,108.231 224.568,98.0642 229,75.5C 231.852,68.1419 237.019,63.4752 244.5,61.5 Z M 246.5,71.5 C 251.974,71.0666 255.64,73.3999 257.5,78.5C 251.872,79.4954 246.206,79.8288 240.5,79.5C 240.642,75.3668 242.642,72.7001 246.5,71.5 Z"/></g>
<g><path style="opacity:0.905" fill="#fefffe" d="M 289.5,61.5 C 297.875,60.3802 305.042,62.7136 311,68.5C 311.977,70.74 312.477,73.0733 312.5,75.5C 308.445,75.8242 304.445,75.4909 300.5,74.5C 296.239,69.1374 292.239,69.3041 288.5,75C 288.82,76.6532 289.82,77.6532 291.5,78C 296.944,78.907 302.277,80.2403 307.5,82C 309.286,82.7845 310.786,83.9512 312,85.5C 315.335,99.691 309.502,106.691 294.5,106.5C 283.865,107.204 277.198,102.537 274.5,92.5C 278.884,92.1744 283.217,92.5078 287.5,93.5C 291.03,97.8937 295.196,98.5604 300,95.5C 300.72,93.8876 300.554,92.3876 299.5,91C 293.463,89.4594 287.463,87.7928 281.5,86C 273.909,79.418 273.575,72.418 280.5,65C 283.571,63.7043 286.571,62.5377 289.5,61.5 Z"/></g>
<g><path style="opacity:0.992" fill="#fefffe" d="M 351.5,62.5 C 355.5,62.5 359.5,62.5 363.5,62.5C 363.5,76.8333 363.5,91.1667 363.5,105.5C 359.5,105.5 355.5,105.5 351.5,105.5C 351.5,91.1667 351.5,76.8333 351.5,62.5 Z"/></g>
<g><path style="opacity:0.916" fill="#fefffe" d="M 399.5,62.5 C 404.167,62.5 408.833,62.5 413.5,62.5C 415.696,72.2848 418.363,81.9515 421.5,91.5C 424.633,82.2677 427.466,72.9344 430,63.5C 434.401,62.5333 438.901,62.2 443.5,62.5C 437.777,79.5022 431.943,96.5022 426,113.5C 422.574,119.463 417.408,122.13 410.5,121.5C 408.167,121.333 405.833,121.167 403.5,121C 403.043,120.586 402.709,120.086 402.5,119.5C 403.432,117.205 404.265,114.871 405,112.5C 407.461,111.782 409.961,111.115 412.5,110.5C 413.696,109.441 414.363,108.107 414.5,106.5C 409.494,91.8154 404.494,77.1488 399.5,62.5 Z"/></g>
<g><path style="opacity:0.941" fill="#fefffe" d="M 507.5,62.5 C 511.833,62.5 516.167,62.5 520.5,62.5C 520.334,72.1724 520.5,81.8391 521,91.5C 527.054,97.4888 531.721,96.4888 535,88.5C 535.5,79.8397 535.666,71.1731 535.5,62.5C 539.5,62.5 543.5,62.5 547.5,62.5C 547.5,76.8333 547.5,91.1667 547.5,105.5C 543.5,105.5 539.5,105.5 535.5,105.5C 535.66,103.801 535.494,102.134 535,100.5C 526.667,108.5 518.333,108.5 510,100.5C 509.333,98.5 508.667,96.5 508,94.5C 507.5,83.8385 507.333,73.1719 507.5,62.5 Z"/></g>
</svg>
